<svg width="162" height="44" viewBox="0 0 162 44" fill="none" xmlns="http://www.w3.org/2000/svg">
<path d="M75.8731 2.29688V34.4571H70.5544V31.8398C69.1402 33.8565 66.654 34.9696 63.7374 34.9696C57.8202 34.9696 53.4464 30.2514 53.4464 23.8628C53.4464 17.4742 57.8202 12.7581 63.7374 12.7581C66.4388 12.7581 68.5396 13.6148 70.083 15.2873V4.10626L75.8731 2.29688ZM64.8094 17.9906C61.7227 17.9906 59.3206 20.3497 59.3206 23.8218C59.3206 27.3819 61.6796 29.69 64.8094 29.69C67.7259 29.69 70.1691 27.6753 70.1691 23.8589C70.1691 20.0915 67.7259 17.9906 64.8094 17.9906Z" fill="white"/>
<path d="M84.7166 25.7958C85.4032 28.4971 87.5901 29.9975 90.6768 29.9975C92.7796 29.9975 94.7513 29.2678 96.594 27.8457L98.9961 31.799C96.4668 33.8999 93.6364 34.9718 90.5066 34.9718C83.9459 35.099 78.7564 29.9975 78.8855 23.8651C78.7564 17.7327 83.8598 12.6312 89.9922 12.7603C95.8604 12.7603 99.9819 17.0911 99.9819 22.621C99.9757 23.6909 99.8444 24.7564 99.5907 25.7958H84.7166ZM94.366 21.729C94.323 19.1059 92.3062 17.4256 89.777 17.4256C87.3338 17.4256 85.3601 19.0981 84.7166 21.7134L94.366 21.729Z" fill="white"/>
<path d="M123.22 13.2314L112.716 34.9715H110.785L100.279 13.2314H106.369L111.728 25.238L117.088 13.2314H123.22Z" fill="white"/>
</svg>
