<svg width="219.2" height="35.8" viewBox="0 0 219.2 35.8" xmlns="http://www.w3.org/2000/svg">
    <g id="svgGroup" stroke-linecap="round" fill-rule="evenodd" font-size="9pt" stroke="#ffffff" stroke-width="0.25mm"
       fill="#ffffff" style="stroke:#ffffff;stroke-width:0.25mm;fill:#ffffff">
        <path d="M 109.9 35.25 L 102.35 35.25 L 102.35 0 L 109.9 0 L 109.9 20.85 L 110 20.85 L 119.05 10.7 L 128 10.7 L 116.35 23.85 L 116.35 21 L 128.5 35.25 L 119.4 35.25 L 110 24.65 L 109.9 24.65 L 109.9 35.25 Z M 63.8 20.65 L 66.45 20.65 L 66.45 24.55 L 63.85 24.55 A 42.078 42.078 0 0 0 62.476 24.571 Q 61.839 24.592 61.288 24.633 A 19.173 19.173 0 0 0 60.575 24.7 A 10.633 10.633 0 0 0 59.666 24.84 Q 59.234 24.928 58.868 25.047 A 5.012 5.012 0 0 0 58.4 25.225 Q 57.777 25.5 57.409 25.869 A 1.972 1.972 0 0 0 57.175 26.15 Q 56.8 26.7 56.8 27.55 A 3.285 3.285 0 0 0 57 28.716 A 2.941 2.941 0 0 0 57.775 29.85 Q 58.75 30.75 60.6 30.75 Q 62.05 30.75 63.175 30.075 Q 64.3 29.4 64.95 28.225 A 5.223 5.223 0 0 0 65.569 26.192 A 6.468 6.468 0 0 0 65.6 25.55 L 65.6 19.8 Q 65.6 17.675 64.667 16.74 A 2.311 2.311 0 0 0 64.6 16.675 Q 63.688 15.831 61.61 15.757 A 11.528 11.528 0 0 0 61.2 15.75 Q 59.2 15.75 56.975 16.375 A 19.204 19.204 0 0 0 53.514 17.733 A 22.216 22.216 0 0 0 52.55 18.25 L 50.5 13.2 Q 51.8 12.3 53.675 11.625 Q 55.55 10.95 57.6 10.575 A 23.215 23.215 0 0 1 60.084 10.253 A 19.431 19.431 0 0 1 61.5 10.2 Q 64.387 10.2 66.5 10.832 A 10.408 10.408 0 0 1 67.825 11.325 Q 70.3 12.45 71.55 14.775 A 9.563 9.563 0 0 1 72.404 17.063 Q 72.67 18.161 72.757 19.448 A 19.276 19.276 0 0 1 72.8 20.75 L 72.8 35.25 L 65.75 35.25 L 65.75 30.3 L 66.1 30.3 A 6.842 6.842 0 0 1 65.511 32.14 A 5.958 5.958 0 0 1 64.825 33.225 Q 63.85 34.45 62.35 35.125 A 7.551 7.551 0 0 1 60.327 35.701 A 9.918 9.918 0 0 1 58.9 35.8 A 11.917 11.917 0 0 1 56.055 35.472 A 9.956 9.956 0 0 1 54.05 34.75 Q 51.9 33.7 50.7 31.9 Q 49.5 30.1 49.5 27.85 Q 49.5 25.15 50.9 23.575 A 5.63 5.63 0 0 1 52.326 22.444 Q 53.029 22.041 53.925 21.739 A 13.813 13.813 0 0 1 55.45 21.325 Q 58.46 20.68 63.343 20.651 A 78.047 78.047 0 0 1 63.8 20.65 Z M 197.25 22.7 L 197.25 24.6 L 179.2 24.6 L 179.2 20.7 L 191.8 20.7 L 191 21.4 Q 191 19.41 190.436 18.048 A 4.833 4.833 0 0 0 189.675 16.775 A 4.305 4.305 0 0 0 187.089 15.305 A 6.43 6.43 0 0 0 185.9 15.2 A 6.712 6.712 0 0 0 184.387 15.363 A 5.034 5.034 0 0 0 182.75 16.05 A 5.21 5.21 0 0 0 181.085 17.836 A 6.622 6.622 0 0 0 180.75 18.5 A 7.913 7.913 0 0 0 180.226 20.255 Q 180.078 21.07 180.054 22.001 A 13.981 13.981 0 0 0 180.05 22.35 L 180.05 22.75 A 13.777 13.777 0 0 0 180.15 24.463 Q 180.259 25.329 180.486 26.054 A 6.604 6.604 0 0 0 180.825 26.925 Q 181.6 28.55 183.175 29.35 A 6.871 6.871 0 0 0 184.822 29.924 Q 185.594 30.094 186.489 30.136 A 12.93 12.93 0 0 0 187.1 30.15 Q 189.1 30.15 191.15 29.55 Q 193.2 28.95 194.85 27.7 L 196.85 32.75 A 12.843 12.843 0 0 1 194.508 34.143 A 17.16 17.16 0 0 1 192.325 34.975 Q 189.65 35.8 186.95 35.8 A 20.122 20.122 0 0 1 183.408 35.504 Q 181.321 35.131 179.6 34.287 A 12.552 12.552 0 0 1 179.475 34.225 A 11.53 11.53 0 0 1 175.699 31.25 A 11.179 11.179 0 0 1 174.675 29.775 Q 173 26.9 173 23 A 15.279 15.279 0 0 1 173.399 19.435 A 12.203 12.203 0 0 1 174.6 16.325 Q 176.2 13.45 179.075 11.825 A 12.624 12.624 0 0 1 184.258 10.257 A 15.485 15.485 0 0 1 185.6 10.2 A 14.317 14.317 0 0 1 188.559 10.492 A 10.739 10.739 0 0 1 191.8 11.725 Q 194.4 13.25 195.825 16.05 A 12.694 12.694 0 0 1 196.977 19.532 A 17.513 17.513 0 0 1 197.25 22.7 Z M 19.4 35.25 L 11.65 35.25 L 11.65 6.4 L 0 6.4 L 0 0 L 31.05 0 L 31.05 6.4 L 19.4 6.4 L 19.4 35.25 Z M 128.6 33 L 130.4 28.1 A 17.555 17.555 0 0 0 132.58 29.203 A 19.958 19.958 0 0 0 133.125 29.425 Q 134.6 30 136.2 30.3 Q 137.8 30.6 139.35 30.6 A 10.875 10.875 0 0 0 140.438 30.55 Q 141.767 30.415 142.475 29.925 A 2.467 2.467 0 0 0 143.06 29.372 A 1.994 1.994 0 0 0 143.45 28.15 A 2.436 2.436 0 0 0 143.38 27.549 A 1.594 1.594 0 0 0 142.8 26.65 A 2.78 2.78 0 0 0 142.228 26.317 Q 141.938 26.189 141.581 26.093 A 6.762 6.762 0 0 0 140.9 25.95 L 135.65 25 Q 133.124 24.552 131.544 23.324 A 6.446 6.446 0 0 1 130.875 22.725 A 5.86 5.86 0 0 1 129.249 19.199 A 7.96 7.96 0 0 1 129.2 18.3 A 7.482 7.482 0 0 1 129.584 15.868 A 6.588 6.588 0 0 1 130.6 13.975 A 8.219 8.219 0 0 1 133.033 11.867 A 10.648 10.648 0 0 1 134.475 11.175 A 13.761 13.761 0 0 1 137.652 10.361 A 17.939 17.939 0 0 1 140.1 10.2 Q 141.9 10.2 143.6 10.5 Q 145.3 10.8 146.825 11.4 Q 148.35 12 149.55 13 L 147.65 17.85 A 8.885 8.885 0 0 0 146.362 17.01 A 11.251 11.251 0 0 0 145.4 16.55 Q 144.1 16 142.75 15.675 A 12.03 12.03 0 0 0 141.279 15.412 A 9.662 9.662 0 0 0 140.2 15.35 Q 138.281 15.35 137.271 15.877 A 2.585 2.585 0 0 0 136.95 16.075 Q 135.95 16.8 135.95 17.9 Q 135.95 18.75 136.525 19.325 A 2.25 2.25 0 0 0 137.12 19.743 Q 137.404 19.884 137.76 19.983 A 5.309 5.309 0 0 0 138.3 20.1 L 143.55 21.05 Q 146.8 21.6 148.5 23.225 A 5.379 5.379 0 0 1 150.073 26.207 A 7.827 7.827 0 0 1 150.2 27.65 Q 150.2 30.2 148.85 32.025 A 7.891 7.891 0 0 1 146.474 34.133 A 10.316 10.316 0 0 1 145.05 34.825 A 13.209 13.209 0 0 1 142.252 35.579 Q 140.959 35.786 139.496 35.799 A 22.077 22.077 0 0 1 139.3 35.8 A 24.165 24.165 0 0 1 135.401 35.492 A 22.337 22.337 0 0 1 135.15 35.45 A 23.732 23.732 0 0 1 133.011 34.977 A 19.075 19.075 0 0 1 131.5 34.5 A 12.896 12.896 0 0 1 129.682 33.682 A 10.611 10.611 0 0 1 128.6 33 Z M 155.95 25.75 L 155.95 16.35 L 151.3 16.35 L 151.3 10.7 L 155.95 10.7 L 155.95 3.5 L 163.5 3.5 L 163.5 10.7 L 170.75 10.7 L 170.75 16.35 L 163.5 16.35 L 163.5 25.45 A 7.239 7.239 0 0 0 163.586 26.604 Q 163.686 27.223 163.903 27.716 A 3.149 3.149 0 0 0 164.475 28.6 Q 165.45 29.65 167.6 29.65 A 6.353 6.353 0 0 0 168.485 29.585 A 7.749 7.749 0 0 0 168.975 29.5 Q 169.7 29.35 170.55 29.1 L 171.65 34.6 Q 170.666 35.116 169.33 35.433 A 14.078 14.078 0 0 1 169.15 35.475 A 13.092 13.092 0 0 1 166.519 35.798 A 12.114 12.114 0 0 1 166.3 35.8 A 17.197 17.197 0 0 1 163.421 35.575 Q 161.881 35.313 160.665 34.746 A 7.532 7.532 0 0 1 158.5 33.25 Q 155.95 30.7 155.95 25.75 Z M 99.05 12.9 L 96.95 18.1 A 8.964 8.964 0 0 0 94.688 16.735 A 10.438 10.438 0 0 0 94.15 16.525 A 10.407 10.407 0 0 0 92.647 16.103 A 7.732 7.732 0 0 0 91.15 15.95 Q 88.2 15.95 86.575 17.775 A 5.972 5.972 0 0 0 85.337 20.042 Q 84.95 21.314 84.95 22.95 Q 84.95 25.499 85.92 27.198 A 5.805 5.805 0 0 0 86.575 28.125 Q 88.2 30 91.15 30 A 8.173 8.173 0 0 0 92.788 29.826 A 10.936 10.936 0 0 0 94.15 29.45 Q 95.75 28.9 96.95 27.85 L 99.05 33.05 A 9.311 9.311 0 0 1 97.355 34.159 Q 96.523 34.589 95.525 34.928 A 16.397 16.397 0 0 1 95.15 35.05 A 16.132 16.132 0 0 1 91.209 35.778 A 14.827 14.827 0 0 1 90.4 35.8 A 17.15 17.15 0 0 1 86.875 35.454 A 13.064 13.064 0 0 1 83.425 34.225 Q 80.45 32.65 78.85 29.75 Q 77.25 26.85 77.25 22.9 A 16.396 16.396 0 0 1 77.556 19.654 A 12.097 12.097 0 0 1 78.85 16.1 Q 80.45 13.25 83.425 11.725 A 13.587 13.587 0 0 1 87.431 10.433 A 18.175 18.175 0 0 1 90.4 10.2 Q 92.8 10.2 95.175 10.9 Q 97.467 11.575 98.943 12.809 A 7.734 7.734 0 0 1 99.05 12.9 Z M 37.95 35.25 L 30.25 35.25 L 30.25 10.7 L 37.65 10.7 L 37.65 16.7 L 37.15 16.7 A 9.225 9.225 0 0 1 37.873 14.489 A 6.887 6.887 0 0 1 39.775 12.075 A 7.945 7.945 0 0 1 42.301 10.736 Q 43.58 10.317 45.15 10.2 L 47.35 10.05 L 47.8 16.4 L 43.55 16.85 Q 40.7 17.1 39.325 18.5 Q 37.95 19.9 37.95 22.55 L 37.95 35.25 Z M 209.35 35.25 L 201.65 35.25 L 201.65 10.7 L 209.05 10.7 L 209.05 16.7 L 208.55 16.7 A 9.225 9.225 0 0 1 209.273 14.489 A 6.887 6.887 0 0 1 211.175 12.075 A 7.945 7.945 0 0 1 213.701 10.736 Q 214.98 10.317 216.55 10.2 L 218.75 10.05 L 219.2 16.4 L 214.95 16.85 Q 212.1 17.1 210.725 18.5 Q 209.35 19.9 209.35 22.55 L 209.35 35.25 Z"
              vector-effect="non-scaling-stroke"/>
    </g>
</svg>